<svg xmlns="http://www.w3.org/2000/svg" x="0px" y="0px"
     width="64" height="64"
     viewBox="0 0 172 172"
     style=" fill:#000000;">
  <g fill="#28BD28" fill-rule="nonzero" stroke="none" stroke-width="none" stroke-linecap="butt" stroke-linejoin="miter"
     stroke-miterlimit="10" stroke-dasharray="" stroke-dashoffset="0" font-family="none" font-weight="none"
     font-size="none" text-anchor="none" style="mix-blend-mode: normal">
    <path d="M0,172v-172h172v172z" fill="none" stroke="none" stroke-width="1"></path>
    <g fill="#28BD28" stroke="none" stroke-width="1">
      <path
        d="M129,42.40875c-7.44213,-14.82979 -22.05916,-24.72377 -38.5925,-26.1225c-2.9344,-0.215 -5.8806,-0.215 -8.815,0c-16.53334,1.39873 -31.15037,11.29271 -38.5925,26.1225c-8.13453,15.60403 -7.5644,34.31639 1.505,49.39625l36.8725,61.43625c0.96824,1.63178 2.72508,2.63217 4.6225,2.63217c1.89742,0 3.65426,-1.00039 4.6225,-2.63217l36.8725,-61.43625c9.0694,-15.07986 9.63953,-33.79222 1.505,-49.39625zM86,86c-11.87412,0 -21.5,-9.62588 -21.5,-21.5c0,-11.87412 9.62588,-21.5 21.5,-21.5c11.87412,0 21.5,9.62588 21.5,21.5c0.00157,5.70264 -2.2631,11.17216 -6.29547,15.20453c-4.03237,4.03237 -9.50189,6.29704 -15.20453,6.29547z"></path>
    </g>
    <g fill="#28BD28" stroke="none" stroke-width="1">
      <path
        d="M72.83,52.915v21.56h11.45v2.61h-14.65v-24.17zM96.3,77.085h-8.38v-24.17h7.9c2.62667,0 4.6,0.54333 5.92,1.63c1.32667,1.08 1.99,2.68333 1.99,4.81v0c0,1.12667 -0.32333,2.12667 -0.97,3c-0.64,0.86667 -1.51333,1.53667 -2.62,2.01v0c1.30667,0.36667 2.34,1.06333 3.1,2.09c0.75333,1.02 1.13,2.24 1.13,3.66v0c0,2.16667 -0.70333,3.87 -2.11,5.11c-1.4,1.24 -3.38667,1.86 -5.96,1.86zM96.42,65.775h-5.31v8.7h5.26c1.48667,0 2.65667,-0.38333 3.51,-1.15c0.86,-0.76667 1.29,-1.82667 1.29,-3.18v0c0,-2.91333 -1.58333,-4.37 -4.75,-4.37zM91.11,55.535v7.69h4.81c1.39333,0 2.51,-0.35 3.35,-1.05c0.83333,-0.69333 1.25,-1.64 1.25,-2.84v0c0,-1.32667 -0.38667,-2.29 -1.16,-2.89c-0.77333,-0.60667 -1.95333,-0.91 -3.54,-0.91v0z"></path>
    </g>
    <path d="M59.63,87.085v-44.17h54.74v44.17z" fill="#28BD28" stroke="#50e3c2" stroke-width="3" opacity="0"></path>
  </g>
</svg>
